<?xml version="1.0" standalone="no"?>
<!DOCTYPE svg PUBLIC "-//W3C//DTD SVG 20010904//EN"
 "http://www.w3.org/TR/2001/REC-SVG-20010904/DTD/svg10.dtd">
<svg version="1.0" xmlns="http://www.w3.org/2000/svg"
 width="3879.000000pt" height="412.000000pt" viewBox="0 0 3879.000000 412.000000"
 preserveAspectRatio="xMidYMid meet">

<g transform="translate(0.000000,412.000000) scale(0.100000,-0.100000)"
fill="#000000" stroke="none">
<path d="M6705 4098 c-386 -43 -771 -195 -1068 -420 -101 -77 -269 -239 -349
-335 -250 -306 -406 -685 -447 -1092 -44 -424 59 -890 274 -1246 123 -204 324
-428 503 -564 731 -552 1792 -586 2554 -81 392 260 674 630 816 1070 212 656
80 1384 -345 1910 -82 102 -260 273 -360 347 -302 224 -648 359 -1043 409
-125 15 -407 17 -535 2z m428 -993 c187 -33 374 -128 508 -259 215 -210 323
-475 323 -796 0 -245 -59 -446 -187 -635 -255 -377 -763 -524 -1195 -346 -207
85 -399 266 -504 476 -145 286 -156 672 -30 974 111 263 333 468 600 556 138
45 332 57 485 30z"/>
<path d="M12070 4099 c-656 -75 -1239 -434 -1570 -968 -437 -705 -402 -1622
88 -2289 226 -309 573 -567 942 -702 121 -45 327 -96 465 -116 164 -24 478
-24 639 0 496 73 919 284 1247 623 528 545 706 1339 464 2071 -252 760 -931
1291 -1767 1381 -113 13 -399 12 -508 0z m499 -1008 c448 -112 761 -540 761
-1039 -1 -680 -547 -1157 -1190 -1041 -354 64 -650 335 -764 699 -123 389 -33
825 228 1107 135 146 325 250 529 289 103 19 327 12 436 -15z"/>
<path d="M0 2055 l0 -1975 548 2 547 3 3 748 2 747 700 0 700 0 0 -750 0 -750
548 2 547 3 3 1973 2 1972 -550 0 -550 0 0 -735 0 -735 -700 0 -700 0 0 735 0
735 -550 0 -550 0 0 -1975z"/>
<path d="M15690 2055 l0 -1975 550 0 550 0 1 513 0 512 193 215 c107 118 198
215 202 217 5 1 231 -326 502 -727 l494 -730 660 0 c527 0 658 3 651 13 -30
37 -1525 2220 -1529 2232 -4 9 257 313 723 842 400 456 734 836 742 846 13 16
-20 17 -635 17 l-649 0 -675 -795 -675 -796 -3 796 -2 795 -550 0 -550 0 0
-1975z"/>
<path d="M20490 2055 l0 -1975 535 0 535 0 0 1122 c0 957 2 1120 14 1108 7 -8
224 -337 481 -730 475 -728 510 -780 523 -780 4 0 233 344 507 765 l500 765 5
-1123 5 -1122 545 0 545 0 3 1973 2 1972 -582 0 -583 0 -460 -746 c-253 -411
-464 -753 -470 -760 -8 -11 -120 163 -478 746 l-469 760 -579 0 -579 0 0
-1975z"/>
<path d="M26060 2055 l0 -1975 1603 2 1602 3 0 465 0 465 -1057 3 -1058 2 0
310 0 310 945 0 945 0 0 435 0 435 -945 0 -945 0 0 295 0 295 1045 0 1045 0 0
465 0 465 -1590 0 -1590 0 0 -1975z"/>
<path d="M30450 2822 c0 -1003 3 -1229 15 -1334 92 -784 527 -1275 1265 -1427
190 -39 270 -46 550 -46 310 1 422 13 647 70 627 161 1019 577 1148 1217 49
247 48 217 52 1506 l4 1222 -560 0 -560 0 -4 -1212 -3 -1213 -22 -85 c-69
-260 -231 -430 -472 -496 -92 -26 -348 -26 -440 0 -118 32 -208 83 -290 166
-120 121 -186 272 -209 483 -7 63 -11 491 -11 1227 l0 1130 -555 0 -555 0 0
-1208z"/>
<path d="M35450 2055 l0 -1975 548 2 547 3 3 562 2 561 403 5 c420 4 492 11
702 59 527 121 907 438 1055 878 100 297 100 671 0 972 -104 311 -326 560
-641 719 -167 84 -422 154 -651 178 -61 7 -445 11 -1033 11 l-935 0 0 -1975z
m1852 1027 c189 -52 303 -151 359 -313 32 -94 32 -258 0 -352 -44 -130 -159
-245 -296 -296 -110 -41 -208 -51 -521 -51 l-294 0 0 521 0 521 338 -4 c304
-4 345 -7 414 -26z"/>
</g>
</svg>
